<svg xmlns="http://www.w3.org/2000/svg" viewBox="0 0 120 120" fill="none">
  <!-- Broom handle -->
  <line x1="22" y1="90" x2="78" y2="18" stroke="#22c55e" stroke-width="5" stroke-linecap="round"/>
  
  <!-- Broom bristles -->
  <path d="M22 90L8 102 L0 114" stroke="#22c55e" stroke-width="5" stroke-linecap="round"/>
  <path d="M22 90L12 108 L6 120" stroke="#4ade80" stroke-width="4.5" stroke-linecap="round"/>
  <path d="M22 90L20 110 L18 120" stroke="#22c55e" stroke-width="4" stroke-linecap="round"/>
  <path d="M22 90L28 108 L30 120" stroke="#4ade80" stroke-width="3.5" stroke-linecap="round"/>
  <path d="M22 90L36 104 L42 120" stroke="#22c55e" stroke-width="3" stroke-linecap="round"/>

  <!-- Bristle bindings -->
  <ellipse cx="22" cy="90" rx="6" ry="4" fill="#16a34a" transform="rotate(-55 22 90)"/>
  <ellipse cx="26" cy="85" rx="5" ry="3" fill="#16a34a" transform="rotate(-55 26 85)"/>
  
  <!-- Speed lines -->
  <line x1="85" y1="15" x2="105" y2="5" stroke="#4ade80" stroke-width="2" stroke-linecap="round" opacity="0.6"/>
  <line x1="88" y1="22" x2="110" y2="18" stroke="#22c55e" stroke-width="2" stroke-linecap="round" opacity="0.5"/>
  <line x1="82" y1="10" x2="100" y2="0" stroke="#4ade80" stroke-width="1.5" stroke-linecap="round" opacity="0.4"/>
  
  <!-- Stars/sparkles -->
  <circle cx="100" cy="8" r="2" fill="#22c55e" opacity="0.7"/>
  <circle cx="108" cy="15" r="1.5" fill="#4ade80" opacity="0.6"/>
  <circle cx="96" cy="4" r="1" fill="#22c55e" opacity="0.5"/>
</svg>
